<svg width="20" height="20" viewBox="0 0 20 20" fill="none" xmlns="http://www.w3.org/2000/svg">
<g clip-path="url(#clip0_1_723)">
<path d="M10.3025 12.4558C10.3025 10.9158 9.57 9.7775 8.05667 9.35083C9.16083 8.825 9.73667 8.02833 9.73667 6.78917C9.73667 4.34583 7.91 3.75 5.8025 3.75H0V16.0175H5.965C8.20167 16.0175 10.3025 14.9483 10.3025 12.4558ZM2.705 5.84417H5.24333C6.21917 5.84417 7.0975 6.1175 7.0975 7.24583C7.0975 8.2875 6.41417 8.70667 5.4475 8.70667H2.705V5.84417ZM2.70417 13.9342V10.5558H5.6525C6.84333 10.5558 7.59667 11.0508 7.59667 12.3075C7.59667 13.5467 6.6975 13.9342 5.59667 13.9342H2.70417Z" fill="#333333"/>
<path d="M15.6633 16.25C17.7916 16.25 19.1699 15.2942 19.8333 13.2625H17.6733C17.4408 14.0208 16.4824 14.4217 15.7391 14.4217C14.3049 14.4217 13.5516 13.5842 13.5516 12.1608H19.9791C20.1824 9.31251 18.5958 6.88501 15.6624 6.88501C12.9466 6.88501 11.1033 8.92001 11.1033 11.5858C11.1033 14.3525 12.8499 16.25 15.6633 16.25ZM15.5866 8.72834C16.8158 8.72834 17.4341 9.44834 17.5374 10.6258H13.5549C13.6358 9.45834 14.4133 8.72834 15.5866 8.72834Z" fill="#333333"/>
<path d="M13.0559 4.39429H18.0459V5.60262H13.0559V4.39429Z" fill="#333333"/>
</g>
<defs>
<clipPath id="clip0_1_723">
<rect width="20" height="20" fill="white"/>
</clipPath>
</defs>
</svg>
