<svg width="32" height="32" viewBox="0 0 32 32" fill="none" xmlns="http://www.w3.org/2000/svg">
<path d="M28.768 8.06398C27.808 8.47998 26.816 8.76798 25.76 8.89598C26.848 8.25598 27.68 7.23198 28.064 5.98398C27.04 6.59198 25.92 7.00798 24.736 7.26398C23.776 6.23998 22.4 5.59998 20.896 5.59998C17.984 5.59998 15.648 7.96798 15.648 10.848C15.648 11.264 15.68 11.648 15.776 12.032C11.424 11.84 7.584 9.72798 4.992 6.55998C3.136 9.88798 5.216 12.64 6.592 13.568C5.76 13.568 4.928 13.312 4.224 12.928C4.224 15.52 6.048 17.664 8.416 18.144C7.904 18.304 6.752 18.4 6.048 18.24C6.72 20.32 8.672 21.856 10.944 21.888C9.152 23.296 6.528 24.416 3.168 24.064C5.504 25.568 8.256 26.432 11.232 26.432C20.896 26.432 26.144 18.432 26.144 11.52C26.144 11.296 26.144 11.072 26.112 10.848C27.2 10.048 28.096 9.11998 28.768 8.06398Z" fill="white"></path>
</svg>
